{
    "asset" : {
        "generator" : "Khronos glTF Blender I/O v3.2.43",
        "version" : "2.0"
    },
    "scene" : 0,
    "scenes" : [
        {
            "name" : "Scene",
            "nodes" : [
                0,
                1,
                2
            ]
        }
    ],
    "nodes" : [
        {
            "name" : "Empty.001",
            "rotation" : [
                0.5045827627182007,
                0.5045827627182007,
                -0.4953749477863312,
                0.495374858379364
            ],
            "scale" : [
                1.7920970916748047,
                1.5428270101547241,
                1.542918086051941
            ],
            "translation" : [
                0,
                2.959251642227173,
                1.8434783220291138
            ]
        },
        {
            "name" : "Empty.002",
            "rotation" : [
                0.5045827627182007,
                0.5045827627182007,
                -0.4953749477863312,
                0.495374858379364
            ],
            "scale" : [
                1.7920970916748047,
                1.5428270101547241,
                1.542918086051941
            ],
            "translation" : [
                0,
                1.3678876161575317,
                12.119345664978027
            ]
        },
        {
            "mesh" : 0,
            "name" : "boveda6",
            "scale" : [
                0.4467090368270874,
                1,
                0.6516889333724976
            ]
        }
    ],
    "meshes" : [
        {
            "name" : "Plane.009",
            "primitives" : [
                {
                    "attributes" : {
                        "POSITION" : 0,
                        "NORMAL" : 1,
                        "TEXCOORD_0" : 2
                    },
                    "indices" : 3
                }
            ]
        }
    ],
    "accessors" : [
        {
            "bufferView" : 0,
            "componentType" : 5126,
            "count" : 502,
            "max" : [
                1.245046854019165,
                1.6481376886367798,
                2.6957945823669434
            ],
            "min" : [
                -1.1093478202819824,
                0,
                -2.700988292694092
            ],
            "type" : "VEC3"
        },
        {
            "bufferView" : 1,
            "componentType" : 5126,
            "count" : 502,
            "type" : "VEC3"
        },
        {
            "bufferView" : 2,
            "componentType" : 5126,
            "count" : 502,
            "type" : "VEC2"
        },
        {
            "bufferView" : 3,
            "componentType" : 5123,
            "count" : 840,
            "type" : "SCALAR"
        }
    ],
    "bufferViews" : [
        {
            "buffer" : 0,
            "byteLength" : 6024,
            "byteOffset" : 0
        },
        {
            "buffer" : 0,
            "byteLength" : 6024,
            "byteOffset" : 6024
        },
        {
            "buffer" : 0,
            "byteLength" : 4016,
            "byteOffset" : 12048
        },
        {
            "buffer" : 0,
            "byteLength" : 1680,
            "byteOffset" : 16064
        }
    ],
    "buffers" : [
        {
            "byteLength" : 17744,
            "uri" : "data:application/octet-stream;base64,"
        }
    ]
}
