{
    "asset" : {
        "generator" : "Khronos glTF Blender I/O v3.2.43",
        "version" : "2.0"
    },
    "scene" : 0,
    "scenes" : [
        {
            "name" : "Scene",
            "nodes" : [
                0
            ]
        }
    ],
    "nodes" : [
        {
            "mesh" : 0,
            "name" : "boveda5",
            "scale" : [
                0.4500822126865387,
                1,
                0.4596034288406372
            ]
        }
    ],
    "meshes" : [
        {
            "name" : "Plane.017",
            "primitives" : [
                {
                    "attributes" : {
                        "POSITION" : 0,
                        "NORMAL" : 1,
                        "TEXCOORD_0" : 2
                    },
                    "indices" : 3
                }
            ]
        }
    ],
    "accessors" : [
        {
            "bufferView" : 0,
            "componentType" : 5126,
            "count" : 277,
            "max" : [
                1.1969842910766602,
                1.6195425987243652,
                1
            ],
            "min" : [
                -1,
                0,
                -1
            ],
            "type" : "VEC3"
        },
        {
            "bufferView" : 1,
            "componentType" : 5126,
            "count" : 277,
            "type" : "VEC3"
        },
        {
            "bufferView" : 2,
            "componentType" : 5126,
            "count" : 277,
            "type" : "VEC2"
        },
        {
            "bufferView" : 3,
            "componentType" : 5123,
            "count" : 648,
            "type" : "SCALAR"
        }
    ],
    "bufferViews" : [
        {
            "buffer" : 0,
            "byteLength" : 3324,
            "byteOffset" : 0
        },
        {
            "buffer" : 0,
            "byteLength" : 3324,
            "byteOffset" : 3324
        },
        {
            "buffer" : 0,
            "byteLength" : 2216,
            "byteOffset" : 6648
        },
        {
            "buffer" : 0,
            "byteLength" : 1296,
            "byteOffset" : 8864
        }
    ],
    "buffers" : [
        {
            "byteLength" : 10160,
            "uri" : "data:application/octet-stream;base64,"
        }
    ]
}
