{
    "asset" : {
        "generator" : "Khronos glTF Blender I/O v3.2.43",
        "version" : "2.0"
    },
    "scene" : 0,
    "scenes" : [
        {
            "name" : "Scene",
            "nodes" : [
                0
            ]
        }
    ],
    "nodes" : [
        {
            "mesh" : 0,
            "name" : "boveda3"
        }
    ],
    "meshes" : [
        {
            "name" : "Plane.011",
            "primitives" : [
                {
                    "attributes" : {
                        "POSITION" : 0,
                        "NORMAL" : 1,
                        "TEXCOORD_0" : 2
                    },
                    "indices" : 3
                }
            ]
        }
    ],
    "accessors" : [
        {
            "bufferView" : 0,
            "componentType" : 5126,
            "count" : 1003,
            "max" : [
                0.5643545985221863,
                1.5251661539077759,
                0.6513347029685974
            ],
            "min" : [
                -0.44370418787002563,
                0,
                -0.6513347029685974
            ],
            "type" : "VEC3"
        },
        {
            "bufferView" : 1,
            "componentType" : 5126,
            "count" : 1003,
            "type" : "VEC3"
        },
        {
            "bufferView" : 2,
            "componentType" : 5126,
            "count" : 1003,
            "type" : "VEC2"
        },
        {
            "bufferView" : 3,
            "componentType" : 5123,
            "count" : 1680,
            "type" : "SCALAR"
        }
    ],
    "bufferViews" : [
        {
            "buffer" : 0,
            "byteLength" : 12036,
            "byteOffset" : 0
        },
        {
            "buffer" : 0,
            "byteLength" : 12036,
            "byteOffset" : 12036
        },
        {
            "buffer" : 0,
            "byteLength" : 8024,
            "byteOffset" : 24072
        },
        {
            "buffer" : 0,
            "byteLength" : 3360,
            "byteOffset" : 32096
        }
    ],
    "buffers" : [
        {
            "byteLength" : 35456,
            "uri" : "data:application/octet-stream;base64,"
        }
    ]
}
